<svg width="26" height="15" viewBox="0 0 26 15" fill="none" xmlns="http://www.w3.org/2000/svg">
<path fill-rule="evenodd" clip-rule="evenodd" d="M7.07019 11.5519L20.7888 11.5639C19.5301 10.7232 15.7405 10.3015 13.9291 10.3016C13.4211 10.3017 12.7432 10.3364 12.0056 10.4051C12.0841 9.85561 12.0907 4.34867 12.0128 3.94173C10.7979 4.1542 11.1096 5.47611 11.1092 6.7106C11.1088 7.97024 11.129 9.24518 11.1061 10.503C9.48963 10.7044 7.80184 11.0558 7.07019 11.5519ZM14.3245 5.57023H15.523C15.4794 4.49347 15.4073 3.45849 16.5384 3.33298L16.5392 9.90247L15.5418 9.80999C15.5121 8.71262 15.5316 7.58492 15.5359 6.47844H14.3244L14.324 9.74491L13.0953 9.76077C13.0946 8.10022 13.0948 6.43957 13.0955 4.77901C13.0961 3.41017 12.6826 1.00885 14.3249 1.10381L14.3245 5.57023ZM9.54169 10.1583C10.5471 10.1812 10.3368 9.89703 10.3361 8.97376L10.3355 5.49121C9.95547 5.4448 9.66308 5.70548 9.57746 6.01638C9.50191 6.29037 9.54807 9.68678 9.54169 10.1583ZM18.3176 10.1623L18.3141 5.4813C17.263 5.43942 17.5226 6.90388 17.5226 7.78518C17.5225 10.2063 17.3016 10.1591 18.3176 10.1623Z" fill="black"/>
<path fill-rule="evenodd" clip-rule="evenodd" d="M7.02856 11.5519L20.7471 11.5639C19.4885 10.7232 15.6989 10.3015 13.8875 10.3016C13.3795 10.3017 12.7015 10.3364 11.9639 10.4051C12.0424 9.85561 12.0491 4.34867 11.9712 3.94173C10.7563 4.1542 11.068 5.47611 11.0676 6.7106C11.0672 7.97024 11.0874 9.24518 11.0645 10.503C9.44801 10.7044 7.76021 11.0558 7.02856 11.5519ZM14.2829 5.57023H15.4813C15.4378 4.49347 15.3657 3.45849 16.4967 3.33298L16.4975 9.90247L15.5001 9.80999C15.4704 8.71262 15.4899 7.58492 15.4942 6.47844H14.2827L14.2824 9.74491L13.0537 9.76077C13.053 8.10022 13.0531 6.43957 13.0539 4.77901C13.0545 3.41017 12.641 1.00885 14.2833 1.10381L14.2829 5.57023ZM9.50007 10.1583C10.5055 10.1812 10.2952 9.89703 10.2945 8.97376L10.2939 5.49121C9.91384 5.4448 9.62146 5.70548 9.53583 6.01638C9.46028 6.29037 9.50644 9.68678 9.50007 10.1583ZM18.276 10.1623L18.2725 5.4813C17.2214 5.43942 17.481 6.90388 17.481 7.78518C17.4809 10.2063 17.26 10.1591 18.276 10.1623Z" fill="black" stroke="black" stroke-width="0.216"/>
<path fill-rule="evenodd" clip-rule="evenodd" d="M5.46116 14.6738V14.8339H4.1405V12.6993H4.53604V14.6738H5.46116ZM6.09587 14.8339H5.7036V12.6993H6.09587V14.8339ZM8.38085 13.8369V14.5566C8.25501 14.6661 8.12478 14.7484 7.98968 14.8034C7.85455 14.8585 7.71455 14.8862 7.56961 14.8862C7.25145 14.8862 6.99375 14.7833 6.79653 14.5773C6.59984 14.3714 6.50122 14.1017 6.50122 13.7677C6.50122 13.4495 6.60039 13.1842 6.79926 12.9718C6.99757 12.7598 7.24383 12.6536 7.53748 12.6536C7.71672 12.6536 7.87145 12.6901 8.0033 12.7636C8.1346 12.8372 8.24356 12.9472 8.32964 13.0938L8.20216 13.1831C8.13569 13.0535 8.05396 12.9559 7.95698 12.8911C7.85947 12.8263 7.74669 12.7941 7.61921 12.7941C7.40509 12.7941 7.23565 12.8824 7.11033 13.0589C6.98557 13.236 6.92293 13.4768 6.92293 13.7824C6.92293 14.0761 6.98286 14.3044 7.1027 14.4678C7.22203 14.6313 7.38928 14.713 7.60286 14.713C7.6862 14.713 7.76358 14.7005 7.8355 14.6749C7.90686 14.6492 7.96898 14.6116 8.02129 14.5632V13.8369H8.38085ZM9.21497 13.8271V14.8339H8.81943V12.6993H9.21497V13.6702H10.1074V12.6993H10.4997V14.8339H10.1074V13.8271H9.21497ZM11.3534 14.8339V12.8595H10.7944V12.6993H12.3047V12.8595H11.7457V14.8339H11.3534ZM12.9982 14.8339H12.6059V12.6993H12.9982V14.8339ZM13.5507 14.8339V12.6993H13.913L15.0184 14.1731V12.6993H15.208V14.8339H15.0184L13.7403 13.1336V14.8339H13.5507ZM17.4761 13.8369V14.5566C17.3503 14.6661 17.22 14.7484 17.0849 14.8034C16.9498 14.8585 16.8098 14.8862 16.6648 14.8862C16.3467 14.8862 16.089 14.7833 15.8918 14.5773C15.6951 14.3714 15.5965 14.1017 15.5965 13.7677C15.5965 13.4495 15.6956 13.1842 15.8945 12.9718C16.0928 12.7598 16.3391 12.6536 16.6327 12.6536C16.8119 12.6536 16.9667 12.6901 17.0985 12.7636C17.2298 12.8372 17.3388 12.9472 17.4249 13.0938L17.2974 13.1831C17.2309 13.0535 17.1492 12.9559 17.0522 12.8911C16.9547 12.8263 16.8419 12.7941 16.7144 12.7941C16.5003 12.7941 16.3309 12.8824 16.2056 13.0589C16.0808 13.236 16.0182 13.4768 16.0182 13.7824C16.0182 14.0761 16.0781 14.3044 16.1979 14.4678C16.3173 14.6313 16.4845 14.713 16.6981 14.713C16.7814 14.713 16.8588 14.7005 16.9307 14.6749C17.0021 14.6492 17.0642 14.6116 17.1165 14.5632V13.8369H17.4761ZM18.3102 13.8271V14.8339H17.9147V12.6993H18.3102V13.6702H19.2026V12.6993H19.5949V14.8339H19.2026V13.8271H18.3102ZM20.3184 14.1311H20.9395L20.6284 13.3526L20.3184 14.1311ZM19.8537 14.8339L20.7303 12.6568L21.6418 14.8339H21.2206L20.9984 14.2651H20.2629L20.0428 14.8339H19.8537ZM21.8401 12.6993H22.2356V13.9884C22.2356 14.2395 22.2711 14.4144 22.3413 14.513C22.4116 14.6116 22.5304 14.6607 22.6977 14.6607C22.8644 14.6607 22.9831 14.6116 23.0529 14.513C23.1226 14.4144 23.1575 14.2395 23.1575 13.9884V12.6993H23.3471V14.0603C23.3471 14.3354 23.2844 14.5419 23.1597 14.6797C23.0344 14.8176 22.8464 14.8862 22.5952 14.8862C22.4835 14.8862 22.3762 14.8661 22.2738 14.8258C22.1708 14.7855 22.0864 14.7299 22.0205 14.6596C21.9556 14.5915 21.9093 14.5136 21.8815 14.4259C21.8537 14.3382 21.8401 14.2166 21.8401 14.0603V12.6993ZM23.9175 14.4286C23.9644 14.5179 24.0243 14.5877 24.0973 14.6378C24.1698 14.6879 24.2482 14.713 24.3327 14.713C24.4465 14.713 24.5391 14.677 24.6105 14.6051C24.6819 14.5332 24.7173 14.4411 24.7173 14.3283C24.7173 14.148 24.5582 13.9927 24.2395 13.862L24.2351 13.8603C24.0635 13.7901 23.942 13.7105 23.8707 13.6223C23.7987 13.534 23.7628 13.4223 23.7628 13.2872C23.7628 13.102 23.8243 12.95 23.948 12.8317C24.0711 12.713 24.2308 12.6536 24.4269 12.6536C24.5735 12.6536 24.702 12.6868 24.8121 12.7527C24.9222 12.8187 25.0039 12.9124 25.0573 13.0333L24.9167 13.1276C24.8819 13.0279 24.829 12.951 24.7587 12.8977C24.6884 12.8437 24.6051 12.817 24.5081 12.817C24.4046 12.817 24.3201 12.8502 24.2542 12.9167C24.1883 12.9832 24.1551 13.0698 24.1551 13.1777C24.1551 13.2627 24.1823 13.3346 24.2368 13.3945C24.2907 13.4539 24.3926 13.5155 24.5419 13.5792C24.7767 13.6806 24.932 13.777 25.0066 13.8696C25.0818 13.9622 25.1194 14.081 25.1194 14.2254C25.1194 14.4171 25.0529 14.5751 24.9205 14.6994C24.7881 14.8241 24.6203 14.8862 24.4171 14.8862C24.27 14.8862 24.1436 14.8579 24.0374 14.8018C23.9306 14.7457 23.838 14.6585 23.7595 14.5403L23.9175 14.4286Z" fill="black"/>
<path fill-rule="evenodd" clip-rule="evenodd" d="M1.23351 14.844V13.519H0.858398V13.4115H1.87188V13.519H1.49677V14.844H1.23351ZM2.23825 14.844H2.02985V13.3105H2.23825V14.289H2.59363V13.9051H2.80203V14.844H2.59363V14.3701H2.23825V14.844ZM3.09601 14.074C3.09601 14.0038 3.10697 13.9577 3.12892 13.938C3.15303 13.916 3.1991 13.9051 3.27151 13.9051H3.71901V13.9862H3.39874C3.36144 13.9862 3.33511 13.9906 3.32416 14.0016C3.311 14.0125 3.30441 14.0323 3.30441 14.0608V14.2977H3.64444V14.3899H3.30441V14.6882C3.30441 14.7167 3.311 14.7365 3.32416 14.7475C3.33732 14.7584 3.36583 14.7628 3.41408 14.7628H3.72999V14.844H3.23858C3.18594 14.844 3.14866 14.833 3.1267 14.8111C3.10697 14.7891 3.09601 14.7431 3.09601 14.6751V14.074Z" fill="black"/>
</svg>
